<svg xmlns="http://www.w3.org/2000/svg" xmlns:xlink="http://www.w3.org/1999/xlink" viewBox="0,0,256,256" width="50px" height="auto"><g fill="none" fill-rule="nonzero" stroke="none" stroke-width="1" stroke-linecap="butt" stroke-linejoin="miter" stroke-miterlimit="10" stroke-dasharray="" stroke-dashoffset="0" font-family="none" font-weight="none" font-size="none" text-anchor="none" style="mix-blend-mode: normal"><g transform="scale(2.56,2.56)"><path d="M69,82h-38c-7.18,0 -13,-5.82 -13,-13v-38c0,-7.18 5.82,-13 13,-13h38c7.18,0 13,5.82 13,13v38c0,7.18 -5.82,13 -13,13z" fill-opacity="0.01176" fill="#f15b6c"></path><path d="M66.5,78h-33c-6.341,0 -11.5,-5.159 -11.5,-11.5v-33c0,-6.341 5.159,-11.5 11.5,-11.5h33c0.353,0 0.701,0.021 1.046,0.053c0.275,0.025 0.477,0.269 0.452,0.544c-0.025,0.274 -0.258,0.476 -0.544,0.452c-0.315,-0.029 -0.632,-0.049 -0.954,-0.049h-33c-5.79,0 -10.5,4.71 -10.5,10.5v33c0,5.79 4.71,10.5 10.5,10.5h33c5.79,0 10.5,-4.71 10.5,-10.5v-17c0,-0.276 0.224,-0.5 0.5,-0.5c0.276,0 0.5,0.224 0.5,0.5v17c0,6.341 -5.159,11.5 -11.5,11.5zM77.5,40c-0.276,0 -0.5,-0.224 -0.5,-0.5v-2c0,-0.276 0.224,-0.5 0.5,-0.5c0.276,0 0.5,0.224 0.5,0.5v2c0,0.276 -0.224,0.5 -0.5,0.5zM77.5,47c-0.276,0 -0.5,-0.224 -0.5,-0.5v-4c0,-0.276 0.224,-0.5 0.5,-0.5c0.276,0 0.5,0.224 0.5,0.5v4c0,0.276 -0.224,0.5 -0.5,0.5z" fill="#9cd2d3"></path><path d="M69,83h-38c-7.72,0 -14,-6.28 -14,-14v-38c0,-7.72 6.28,-14 14,-14h38c7.72,0 14,6.28 14,14v38c0,7.72 -6.28,14 -14,14zM31,19c-6.617,0 -12,5.383 -12,12v38c0,6.617 5.383,12 12,12h38c6.617,0 12,-5.383 12,-12v-38c0,-6.617 -5.383,-12 -12,-12z" fill="#9cd2d3"></path><path d="M61.957,48.415c-3.208,0.557 -7.453,0.865 -11.957,0.865c-4.503,0 -8.749,-0.308 -11.955,-0.865c-3.593,-0.625 -5.423,-1.467 -5.901,-2.735c-0.086,0.228 -0.144,0.464 -0.144,0.72v7.2c0,1.685 1.809,2.719 6.045,3.455c3.205,0.557 7.452,0.865 11.955,0.865c4.504,0 8.749,-0.308 11.958,-0.865c4.234,-0.736 6.042,-1.77 6.042,-3.455v-7.2c0,-0.256 -0.056,-0.492 -0.141,-0.72c-0.479,1.268 -2.31,2.11 -5.902,2.735" fill="#fefdef"></path><path d="M61.957,59.935c-3.208,0.557 -7.453,0.865 -11.957,0.865c-4.503,0 -8.749,-0.308 -11.955,-0.865c-3.593,-0.625 -5.423,-1.467 -5.901,-2.735c-0.086,0.228 -0.144,0.464 -0.144,0.72v7.2c0,1.685 1.809,2.719 6.045,3.455c3.205,0.557 7.452,0.865 11.955,0.865c4.504,0 8.749,-0.308 11.958,-0.865c4.234,-0.736 6.042,-1.77 6.042,-3.455v-7.2c0,-0.256 -0.056,-0.492 -0.141,-0.72c-0.479,1.267 -2.31,2.11 -5.902,2.735" fill="#fefdef"></path><path d="M61.958,31.425c-3.208,-0.558 -7.454,-0.865 -11.958,-0.865c-4.503,0 -8.749,0.307 -11.956,0.865c-4.235,0.736 -6.044,1.77 -6.044,3.455v7.2c0,1.685 1.809,2.719 6.044,3.455c3.207,0.558 7.453,0.865 11.956,0.865c4.504,0 8.749,-0.307 11.958,-0.865c4.235,-0.737 6.042,-1.77 6.042,-3.455v-7.2c0,-1.685 -1.807,-2.719 -6.042,-3.455zM50,32c9.147,0 16.56,1.29 16.56,2.88c0,1.59 -7.413,2.88 -16.56,2.88c-9.145,0 -16.56,-1.29 -16.56,-2.88c0,-1.59 7.415,-2.88 16.56,-2.88z" fill="#fefdef"></path><path d="M56.235,41.517c-0.45,0 -0.83,-0.349 -0.861,-0.805c-0.032,-0.476 0.327,-0.889 0.804,-0.921c2.217,-0.151 4.207,-0.379 5.914,-0.676c0.606,-0.104 1.434,-0.247 2.278,-0.465c0.456,-0.12 0.933,0.158 1.053,0.621c0.119,0.462 -0.159,0.933 -0.621,1.052c-0.913,0.236 -1.781,0.385 -2.415,0.495c-1.765,0.307 -3.814,0.542 -6.092,0.697c-0.02,0.001 -0.04,0.002 -0.06,0.002z" fill-opacity="0.01176" fill="#f15b6c"></path><path d="M56.235,53.037c-0.45,0 -0.83,-0.349 -0.861,-0.805c-0.032,-0.476 0.327,-0.889 0.804,-0.921c2.212,-0.151 4.202,-0.379 5.914,-0.676c0.606,-0.104 1.434,-0.247 2.278,-0.465c0.456,-0.121 0.933,0.157 1.053,0.621c0.119,0.462 -0.159,0.933 -0.621,1.052c-0.913,0.236 -1.781,0.385 -2.415,0.495c-1.77,0.308 -3.819,0.542 -6.092,0.697c-0.02,0.001 -0.04,0.002 -0.06,0.002z" fill-opacity="0.01176" fill="#f15b6c"></path><path d="M56.235,64.556c-0.45,0 -0.83,-0.35 -0.861,-0.806c-0.032,-0.476 0.327,-0.888 0.804,-0.92c2.211,-0.151 4.201,-0.378 5.914,-0.676c0.606,-0.104 1.434,-0.247 2.278,-0.465c0.456,-0.12 0.933,0.158 1.053,0.621c0.119,0.462 -0.159,0.933 -0.621,1.052c-0.913,0.236 -1.781,0.385 -2.415,0.495c-1.771,0.308 -3.821,0.542 -6.092,0.697c-0.02,0.001 -0.04,0.002 -0.06,0.002z" fill-opacity="0.01176" fill="#f15b6c"></path></g></g></svg>