<svg xmlns="http://www.w3.org/2000/svg" xmlns:xlink="http://www.w3.org/1999/xlink" viewBox="0,0,256,256" width="50px" height="auto"><g fill="#9cd2d3" fill-rule="nonzero" stroke="none" stroke-width="1" stroke-linecap="butt" stroke-linejoin="miter" stroke-miterlimit="10" stroke-dasharray="" stroke-dashoffset="0" font-family="none" font-weight="none" font-size="none" text-anchor="none" style="mix-blend-mode: normal"><g transform="scale(3.55556,3.55556)"><path d="M46.603,14c10.57,0 11.397,0.827 11.397,11.397v21.277c0,10.504 -0.822,11.326 -11.326,11.326h-21.348c-10.504,0 -11.326,-0.822 -11.326,-11.326v-21.348c0,-10.504 0.822,-11.326 11.326,-11.326zM30.202,44.705v-13.389h-4.161v13.389zM28.122,29.401c1.337,0 2.425,-1.088 2.425,-2.426c0,-1.337 -1.088,-2.425 -2.425,-2.425c-1.34,0 -2.426,1.086 -2.426,2.425c0,1.339 1.084,2.426 2.426,2.426zM45.812,44.705v-7.343c0,-3.605 -0.779,-6.378 -4.992,-6.378c-2.024,0 -3.381,1.11 -3.937,2.162h-0.056v-1.829h-3.992v13.389h4.158v-6.624c0,-1.746 0.333,-3.437 2.498,-3.437c2.134,0 2.162,1.997 2.162,3.55v6.511h4.159z"></path></g></g></svg>