<svg xmlns="http://www.w3.org/2000/svg" xmlns:xlink="http://www.w3.org/1999/xlink" viewBox="0,0,256,256" width="40px" height="auto"><g fill="#9cd2d3" fill-rule="nonzero" stroke="none" stroke-width="1" stroke-linecap="butt" stroke-linejoin="miter" stroke-miterlimit="10" stroke-dasharray="" stroke-dashoffset="0" font-family="none" font-weight="none" font-size="none" text-anchor="none" style="mix-blend-mode: normal"><g transform="scale(3.55556,3.55556)"><path d="M36,12c-13.255,0 -24,10.745 -24,24c0,13.255 10.745,24 24,24c13.255,0 24,-10.745 24,-24c0,-13.255 -10.745,-24 -24,-24zM36,20c8.837,0 16,7.163 16,16c0,7.28418 -4.8717,13.42017 -11.53125,15.35547c-0.27019,-0.25234 -0.52712,-0.61184 -0.51562,-1.07031c0.027,-1.052 0,-3.5062 0,-4.4082c0,-1.548 -0.98047,-2.64648 -0.98047,-2.64648c0,0 7.68164,0.08567 7.68164,-8.11133c0,-3.162 -1.65039,-4.80859 -1.65039,-4.80859c0,0 0.86822,-3.37659 -0.30078,-4.80859c-1.31,-0.142 -3.6562,1.25134 -4.6582,1.90234c0,0 -1.58752,-0.65039 -4.22852,-0.65039c-2.641,0 -4.22852,0.65039 -4.22852,0.65039c-1.001,-0.651 -3.3482,-2.04334 -4.6582,-1.90234c-1.169,1.432 -0.30078,4.80859 -0.30078,4.80859c0,0 -1.6543,1.64559 -1.6543,4.80859c0,8.197 7.68164,8.11133 7.68164,8.11133c0,0 -0.87405,0.99625 -0.96289,2.42188c-0.51328,0.18107 -1.21313,0.39648 -1.88086,0.39648c-1.61,0 -2.8342,-1.56506 -3.2832,-2.28906c-0.443,-0.714 -1.35127,-1.3125 -2.19727,-1.3125c-0.557,0 -0.82812,0.27966 -0.82812,0.59766c0,0.318 0.78187,0.54086 1.29688,1.13086c1.087,1.245 1.0655,4.04297 4.9375,4.04297c0.45827,0 1.28282,-0.10333 1.93945,-0.19336c-0.00363,0.8787 -0.01384,1.71997 0,2.25977c0.01042,0.4152 -0.20082,0.74689 -0.44141,0.99414c-6.51017,-2.02753 -11.23633,-8.10141 -11.23633,-15.2793c0,-8.837 7.163,-16 16,-16z"></path></g></g></svg>