<svg xmlns="http://www.w3.org/2000/svg" xmlns:xlink="http://www.w3.org/1999/xlink" width="500" zoomAndPan="magnify" viewBox="0 0 375 374.999991" height="500" preserveAspectRatio="xMidYMid meet" version="1.0"><defs><g/><clipPath id="6be0a5d852"><path d="M 89 146 L 286 146 L 286 287.945312 L 89 287.945312 Z M 89 146 " clip-rule="nonzero"/></clipPath><clipPath id="cb3a0bed96"><path d="M 54.585938 33 L 320.085938 33 L 320.085938 152 L 54.585938 152 Z M 54.585938 33 " clip-rule="nonzero"/></clipPath><clipPath id="158efab02f"><path d="M 159 82.335938 L 175 82.335938 L 175 97 L 159 97 Z M 159 82.335938 " clip-rule="nonzero"/></clipPath><clipPath id="89a3d7d31e"><path d="M 129.640625 112 L 145 112 L 145 127 L 129.640625 127 Z M 129.640625 112 " clip-rule="nonzero"/></clipPath><clipPath id="963757c4fc"><path d="M 235 149 L 245.140625 149 L 245.140625 160 L 235 160 Z M 235 149 " clip-rule="nonzero"/></clipPath><clipPath id="5bc5b2a1f8"><path d="M 215 169 L 225 169 L 225 179.835938 L 215 179.835938 Z M 215 169 " clip-rule="nonzero"/></clipPath></defs><rect x="-37.5" width="450" fill="#ffffff" y="-37.499999" height="449.999989" fill-opacity="1"/><rect x="-37.5" width="450" fill="#02253d" y="-37.499999" height="449.999989" fill-opacity="1"/><g clip-path="url(#6be0a5d852)"><path fill="#d1d2d3" d="M 273.460938 269.359375 C 273.460938 272.761719 270.695312 275.472656 267.347656 275.472656 L 224.390625 275.472656 C 220.988281 275.472656 218.277344 272.707031 218.277344 269.359375 L 218.277344 205.671875 C 218.277344 195.515625 210.035156 187.277344 199.882812 187.277344 L 175.320312 187.277344 C 165.167969 187.277344 156.925781 195.515625 156.925781 205.671875 L 156.925781 269.359375 C 156.925781 272.761719 154.164062 275.472656 150.8125 275.472656 L 107.699219 275.472656 C 104.296875 275.472656 101.582031 272.707031 101.582031 269.359375 L 101.582031 146.605469 L 89.304688 146.605469 L 89.304688 269.359375 C 89.304688 279.515625 97.542969 287.753906 107.699219 287.753906 L 150.652344 287.753906 C 160.808594 287.753906 169.046875 279.515625 169.046875 269.359375 L 169.046875 205.671875 C 169.046875 202.269531 171.8125 199.554688 175.160156 199.554688 L 199.722656 199.554688 C 203.125 199.554688 205.835938 202.320312 205.835938 205.671875 L 205.835938 269.359375 C 205.835938 279.515625 214.078125 287.753906 224.230469 287.753906 L 267.1875 287.753906 C 277.339844 287.753906 285.582031 279.515625 285.582031 269.359375 L 285.582031 146.605469 L 273.300781 146.605469 Z M 273.460938 269.359375 " fill-opacity="1" fill-rule="nonzero"/></g><g clip-path="url(#cb3a0bed96)"><path fill="#d1d2d3" d="M 199.457031 38.257812 C 192.492188 32.304688 182.445312 32.304688 175.480469 38.257812 L 54.585938 141.925781 L 62.5625 151.230469 L 183.507812 47.5625 C 185.847656 45.59375 189.195312 45.59375 191.484375 47.5625 L 312.429688 151.230469 L 320.402344 141.925781 Z M 199.457031 38.257812 " fill-opacity="1" fill-rule="nonzero"/></g><path fill="#d1d2d3" d="M 167.011719 137.097656 C 157.339844 137.097656 149.496094 129.257812 149.496094 119.582031 C 149.496094 109.910156 157.339844 102.066406 167.011719 102.066406 C 176.683594 102.066406 184.527344 109.910156 184.527344 119.582031 C 184.527344 129.257812 176.683594 137.097656 167.011719 137.097656 Z M 167.011719 88.765625 C 150 88.765625 136.203125 102.5625 136.203125 119.582031 C 136.203125 136.601562 150 150.390625 167.011719 150.390625 C 184.03125 150.390625 197.828125 136.601562 197.828125 119.582031 C 197.828125 102.5625 184.03125 88.765625 167.011719 88.765625 " fill-opacity="1" fill-rule="nonzero"/><g clip-path="url(#158efab02f)"><path fill="#d1d2d3" d="M 171.265625 96.894531 L 162.757812 96.894531 C 161.089844 96.894531 159.734375 95.539062 159.734375 93.863281 L 159.734375 85.359375 C 159.734375 83.691406 161.089844 82.328125 162.757812 82.328125 L 171.265625 82.328125 C 172.941406 82.328125 174.292969 83.691406 174.292969 85.359375 L 174.292969 93.863281 C 174.292969 95.539062 172.941406 96.894531 171.265625 96.894531 " fill-opacity="1" fill-rule="nonzero"/></g><path fill="#d1d2d3" d="M 186.0625 106.546875 L 180.046875 100.53125 C 178.867188 99.351562 178.867188 97.429688 180.046875 96.25 L 186.0625 90.238281 C 187.246094 89.054688 189.160156 89.054688 190.347656 90.238281 L 196.363281 96.25 C 197.542969 97.429688 197.542969 99.351562 196.363281 100.53125 L 190.347656 106.546875 C 189.160156 107.730469 187.246094 107.730469 186.0625 106.546875 " fill-opacity="1" fill-rule="nonzero"/><path fill="#d1d2d3" d="M 189.699219 123.835938 L 189.699219 115.328125 C 189.699219 113.65625 191.054688 112.300781 192.726562 112.300781 L 201.234375 112.300781 C 202.910156 112.300781 204.257812 113.65625 204.257812 115.328125 L 204.257812 123.835938 C 204.257812 125.503906 202.910156 126.859375 201.234375 126.859375 L 192.726562 126.859375 C 191.054688 126.859375 189.699219 125.503906 189.699219 123.835938 " fill-opacity="1" fill-rule="nonzero"/><path fill="#d1d2d3" d="M 180.046875 138.632812 L 186.0625 132.617188 C 187.246094 131.433594 189.160156 131.433594 190.347656 132.617188 L 196.363281 138.632812 C 197.542969 139.8125 197.542969 141.734375 196.363281 142.914062 L 190.347656 148.925781 C 189.160156 150.113281 187.246094 150.113281 186.0625 148.925781 L 180.046875 142.914062 C 178.867188 141.734375 178.867188 139.8125 180.046875 138.632812 " fill-opacity="1" fill-rule="nonzero"/><path fill="#d1d2d3" d="M 162.757812 142.269531 L 171.265625 142.269531 C 172.941406 142.269531 174.292969 143.625 174.292969 145.300781 L 174.292969 153.800781 C 174.292969 155.472656 172.941406 156.832031 171.265625 156.832031 L 162.757812 156.832031 C 161.089844 156.832031 159.734375 155.472656 159.734375 153.800781 L 159.734375 145.300781 C 159.734375 143.625 161.089844 142.269531 162.757812 142.269531 " fill-opacity="1" fill-rule="nonzero"/><path fill="#d1d2d3" d="M 147.960938 132.617188 L 153.976562 138.632812 C 155.160156 139.8125 155.160156 141.734375 153.976562 142.914062 L 147.960938 148.925781 C 146.78125 150.113281 144.867188 150.113281 143.679688 148.925781 L 137.667969 142.914062 C 136.488281 141.734375 136.488281 139.8125 137.667969 138.632812 L 143.679688 132.617188 C 144.867188 131.433594 146.78125 131.433594 147.960938 132.617188 " fill-opacity="1" fill-rule="nonzero"/><g clip-path="url(#89a3d7d31e)"><path fill="#d1d2d3" d="M 144.324219 115.328125 L 144.324219 123.835938 C 144.324219 125.503906 142.96875 126.859375 141.300781 126.859375 L 132.792969 126.859375 C 131.117188 126.859375 129.765625 125.503906 129.765625 123.835938 L 129.765625 115.328125 C 129.765625 113.65625 131.117188 112.300781 132.792969 112.300781 L 141.300781 112.300781 C 142.96875 112.300781 144.324219 113.65625 144.324219 115.328125 " fill-opacity="1" fill-rule="nonzero"/></g><path fill="#d1d2d3" d="M 153.976562 100.53125 L 147.960938 106.546875 C 146.78125 107.730469 144.867188 107.730469 143.679688 106.546875 L 137.667969 100.53125 C 136.488281 99.351562 136.488281 97.429688 137.667969 96.25 L 143.679688 90.238281 C 144.867188 89.054688 146.78125 89.054688 147.960938 90.238281 L 153.976562 96.25 C 155.160156 97.429688 155.160156 99.351562 153.976562 100.53125 " fill-opacity="1" fill-rule="nonzero"/><path fill="#d54050" d="M 220.085938 166.421875 C 213.550781 166.421875 208.261719 161.132812 208.261719 154.605469 C 208.261719 148.074219 213.550781 142.78125 220.085938 142.78125 C 226.609375 142.78125 231.902344 148.074219 231.902344 154.605469 C 231.902344 161.132812 226.609375 166.421875 220.085938 166.421875 Z M 220.085938 133.800781 C 208.59375 133.800781 199.285156 143.117188 199.285156 154.605469 C 199.285156 166.089844 208.59375 175.402344 220.085938 175.402344 C 231.566406 175.402344 240.882812 166.089844 240.882812 154.605469 C 240.882812 143.117188 231.566406 133.800781 220.085938 133.800781 " fill-opacity="1" fill-rule="nonzero"/><path fill="#d54050" d="M 222.953125 139.289062 L 217.210938 139.289062 C 216.082031 139.289062 215.167969 138.375 215.167969 137.246094 L 215.167969 131.503906 C 215.167969 130.375 216.082031 129.460938 217.210938 129.460938 L 222.953125 129.460938 C 224.082031 129.460938 224.996094 130.375 224.996094 131.503906 L 224.996094 137.246094 C 224.996094 138.375 224.082031 139.289062 222.953125 139.289062 " fill-opacity="1" fill-rule="nonzero"/><path fill="#d54050" d="M 232.9375 145.808594 L 228.882812 141.746094 C 228.085938 140.941406 228.085938 139.652344 228.882812 138.851562 L 232.9375 134.792969 C 233.738281 133.996094 235.035156 133.996094 235.832031 134.792969 L 239.886719 138.851562 C 240.691406 139.652344 240.691406 140.941406 239.886719 141.746094 L 235.832031 145.808594 C 235.035156 146.605469 233.738281 146.605469 232.9375 145.808594 " fill-opacity="1" fill-rule="nonzero"/><g clip-path="url(#963757c4fc)"><path fill="#d54050" d="M 235.394531 157.472656 L 235.394531 151.730469 C 235.394531 150.601562 236.3125 149.6875 237.4375 149.6875 L 243.179688 149.6875 C 244.308594 149.6875 245.222656 150.601562 245.222656 151.730469 L 245.222656 157.472656 C 245.222656 158.601562 244.308594 159.515625 243.179688 159.515625 L 237.4375 159.515625 C 236.3125 159.515625 235.394531 158.601562 235.394531 157.472656 " fill-opacity="1" fill-rule="nonzero"/></g><path fill="#d54050" d="M 228.882812 167.464844 L 232.9375 163.402344 C 233.738281 162.605469 235.035156 162.605469 235.832031 163.402344 L 239.886719 167.464844 C 240.691406 168.261719 240.691406 169.554688 239.886719 170.351562 L 235.832031 174.410156 C 235.035156 175.207031 233.738281 175.207031 232.9375 174.410156 L 228.882812 170.351562 C 228.085938 169.554688 228.085938 168.261719 228.882812 167.464844 " fill-opacity="1" fill-rule="nonzero"/><g clip-path="url(#5bc5b2a1f8)"><path fill="#d54050" d="M 217.210938 169.914062 L 222.953125 169.914062 C 224.082031 169.914062 224.996094 170.828125 224.996094 171.960938 L 224.996094 177.699219 C 224.996094 178.828125 224.082031 179.742188 222.953125 179.742188 L 217.210938 179.742188 C 216.082031 179.742188 215.167969 178.828125 215.167969 177.699219 L 215.167969 171.960938 C 215.167969 170.828125 216.082031 169.914062 217.210938 169.914062 " fill-opacity="1" fill-rule="nonzero"/></g><path fill="#d54050" d="M 207.226562 163.402344 L 211.28125 167.464844 C 212.085938 168.261719 212.085938 169.554688 211.28125 170.351562 L 207.226562 174.410156 C 206.421875 175.207031 205.132812 175.207031 204.335938 174.410156 L 200.273438 170.351562 C 199.476562 169.554688 199.476562 168.261719 200.273438 167.464844 L 204.335938 163.402344 C 205.132812 162.605469 206.421875 162.605469 207.226562 163.402344 " fill-opacity="1" fill-rule="nonzero"/><path fill="#d54050" d="M 204.769531 151.730469 L 204.769531 157.472656 C 204.769531 158.601562 203.851562 159.515625 202.722656 159.515625 L 196.984375 159.515625 C 195.855469 159.515625 194.9375 158.601562 194.9375 157.472656 L 194.9375 151.730469 C 194.9375 150.601562 195.855469 149.6875 196.984375 149.6875 L 202.722656 149.6875 C 203.851562 149.6875 204.769531 150.601562 204.769531 151.730469 " fill-opacity="1" fill-rule="nonzero"/><path fill="#d54050" d="M 211.28125 141.746094 L 207.226562 145.808594 C 206.421875 146.605469 205.132812 146.605469 204.335938 145.808594 L 200.273438 141.746094 C 199.476562 140.941406 199.476562 139.652344 200.273438 138.851562 L 204.335938 134.792969 C 205.132812 133.996094 206.421875 133.996094 207.226562 134.792969 L 211.28125 138.851562 C 212.085938 139.652344 212.085938 140.941406 211.28125 141.746094 " fill-opacity="1" fill-rule="nonzero"/><g fill="#d1d2d3" fill-opacity="1"><g transform="translate(146.919901, 323.8455)"><g><path d="M 13.453125 -15.5625 C 13.367188 -15.09375 13.054688 -14.859375 12.515625 -14.859375 L 9.671875 -14.859375 C 9.429688 -14.859375 9.242188 -14.789062 9.109375 -14.65625 C 8.984375 -14.53125 8.894531 -14.363281 8.84375 -14.15625 C 8.53125 -12.695312 8.269531 -11.398438 8.0625 -10.265625 C 7.863281 -9.140625 7.765625 -8.316406 7.765625 -7.796875 C 7.765625 -6.992188 7.925781 -6.34375 8.25 -5.84375 C 8.570312 -5.351562 9.097656 -4.925781 9.828125 -4.5625 C 10.109375 -4.425781 10.25 -4.203125 10.25 -3.890625 C 10.25 -3.796875 10.222656 -3.695312 10.171875 -3.59375 C 9.960938 -3.144531 9.679688 -2.617188 9.328125 -2.015625 C 8.984375 -1.421875 8.613281 -0.90625 8.21875 -0.46875 C 7.957031 -0.207031 7.660156 -0.078125 7.328125 -0.078125 C 7.222656 -0.078125 7.125 -0.0859375 7.03125 -0.109375 C 6.945312 -0.140625 6.90625 -0.15625 6.90625 -0.15625 C 5.3125 -0.675781 4.085938 -1.550781 3.234375 -2.78125 C 2.378906 -4.019531 1.953125 -5.378906 1.953125 -6.859375 C 1.953125 -7.484375 2.003906 -8.21875 2.109375 -9.0625 C 2.210938 -9.90625 2.34375 -10.726562 2.5 -11.53125 C 2.65625 -12.34375 2.785156 -13.019531 2.890625 -13.5625 C 2.992188 -14.113281 3.046875 -14.414062 3.046875 -14.46875 C 3.046875 -14.78125 2.898438 -14.9375 2.609375 -14.9375 L 2.21875 -14.9375 C 1.78125 -14.9375 1.535156 -15.179688 1.484375 -15.671875 L 1.484375 -17.265625 C 1.484375 -17.554688 1.484375 -17.835938 1.484375 -18.109375 C 1.484375 -18.378906 1.492188 -18.617188 1.515625 -18.828125 C 1.546875 -19.035156 1.625 -19.21875 1.75 -19.375 C 1.882812 -19.53125 2.082031 -19.617188 2.34375 -19.640625 L 3.703125 -19.765625 C 3.929688 -19.785156 4.097656 -19.867188 4.203125 -20.015625 C 4.304688 -20.160156 4.382812 -20.320312 4.4375 -20.5 C 4.78125 -21.726562 5.113281 -22.847656 5.4375 -23.859375 C 5.757812 -24.867188 6.015625 -25.625 6.203125 -26.125 C 6.328125 -26.488281 6.585938 -26.671875 6.984375 -26.671875 C 7.347656 -26.671875 7.785156 -26.601562 8.296875 -26.46875 C 8.816406 -26.34375 9.332031 -26.191406 9.84375 -26.015625 C 10.351562 -25.847656 10.765625 -25.6875 11.078125 -25.53125 C 11.410156 -25.40625 11.578125 -25.1875 11.578125 -24.875 C 11.578125 -24.71875 11.519531 -24.425781 11.40625 -24 C 11.289062 -23.570312 11.144531 -23.109375 10.96875 -22.609375 C 10.800781 -22.117188 10.660156 -21.664062 10.546875 -21.25 C 10.429688 -20.832031 10.375 -20.554688 10.375 -20.421875 C 10.375 -20.109375 10.53125 -19.925781 10.84375 -19.875 C 11.226562 -19.875 11.613281 -19.875 12 -19.875 C 12.394531 -19.875 12.722656 -19.863281 12.984375 -19.84375 C 13.242188 -19.8125 13.425781 -19.707031 13.53125 -19.53125 C 13.632812 -19.351562 13.6875 -19.160156 13.6875 -18.953125 L 13.6875 -18.640625 C 13.6875 -18.140625 13.660156 -17.597656 13.609375 -17.015625 C 13.554688 -16.429688 13.503906 -15.945312 13.453125 -15.5625 Z M 13.453125 -15.5625 "/></g></g></g><g fill="#d1d2d3" fill-opacity="1"><g transform="translate(159.93946, 323.8455)"><g><path d="M 8.5 -16.296875 C 9.300781 -17.359375 10.128906 -18.226562 10.984375 -18.90625 C 11.847656 -19.582031 12.644531 -19.921875 13.375 -19.921875 C 13.8125 -19.921875 14.296875 -19.765625 14.828125 -19.453125 C 15.359375 -19.140625 15.863281 -18.734375 16.34375 -18.234375 C 16.832031 -17.742188 17.222656 -17.222656 17.515625 -16.671875 C 17.816406 -16.128906 17.96875 -15.613281 17.96875 -15.125 C 17.96875 -14.6875 17.882812 -13.914062 17.71875 -12.8125 C 17.550781 -11.707031 17.328125 -10.425781 17.046875 -8.96875 C 16.773438 -7.507812 16.476562 -6.050781 16.15625 -4.59375 C 15.832031 -3.144531 15.53125 -1.847656 15.25 -0.703125 C 15.113281 -0.285156 14.835938 -0.078125 14.421875 -0.078125 C 14.160156 -0.078125 13.753906 -0.15625 13.203125 -0.3125 C 12.660156 -0.46875 12.125 -0.648438 11.59375 -0.859375 C 11.0625 -1.066406 10.640625 -1.25 10.328125 -1.40625 C 10.015625 -1.5625 9.859375 -1.820312 9.859375 -2.1875 C 9.859375 -2.257812 9.863281 -2.328125 9.875 -2.390625 C 9.894531 -2.460938 9.90625 -2.5 9.90625 -2.5 C 9.90625 -2.5 9.972656 -2.789062 10.109375 -3.375 C 10.253906 -3.957031 10.425781 -4.695312 10.625 -5.59375 C 10.820312 -6.488281 11.015625 -7.441406 11.203125 -8.453125 C 11.398438 -9.472656 11.566406 -10.414062 11.703125 -11.28125 C 11.847656 -12.15625 11.921875 -12.835938 11.921875 -13.328125 C 11.921875 -14.035156 11.804688 -14.390625 11.578125 -14.390625 C 11.296875 -14.390625 10.789062 -14.144531 10.0625 -13.65625 C 9.332031 -13.175781 8.550781 -12.570312 7.71875 -11.84375 C 7.59375 -11.71875 7.460938 -11.550781 7.328125 -11.34375 C 7.203125 -11.132812 7.113281 -10.890625 7.0625 -10.609375 C 6.75 -8.960938 6.453125 -7.320312 6.171875 -5.6875 C 5.898438 -4.050781 5.660156 -2.398438 5.453125 -0.734375 C 5.398438 -0.316406 5.179688 -0.109375 4.796875 -0.109375 C 4.585938 -0.109375 4.222656 -0.164062 3.703125 -0.28125 C 3.179688 -0.40625 2.65625 -0.550781 2.125 -0.71875 C 1.59375 -0.882812 1.179688 -1.019531 0.890625 -1.125 C 0.679688 -1.226562 0.519531 -1.382812 0.40625 -1.59375 C 0.289062 -1.800781 0.234375 -2 0.234375 -2.1875 C 0.285156 -3.195312 0.394531 -4.398438 0.5625 -5.796875 C 0.726562 -7.203125 0.953125 -8.710938 1.234375 -10.328125 C 1.523438 -11.941406 1.835938 -13.566406 2.171875 -15.203125 C 2.515625 -16.835938 2.867188 -18.398438 3.234375 -19.890625 C 3.597656 -21.390625 3.945312 -22.722656 4.28125 -23.890625 C 4.625 -25.066406 4.925781 -25.96875 5.1875 -26.59375 C 5.3125 -26.957031 5.597656 -27.140625 6.046875 -27.140625 C 6.222656 -27.140625 6.597656 -27.066406 7.171875 -26.921875 C 7.742188 -26.773438 8.328125 -26.609375 8.921875 -26.421875 C 9.523438 -26.242188 9.929688 -26.101562 10.140625 -26 C 10.472656 -25.84375 10.640625 -25.625 10.640625 -25.34375 C 10.640625 -25.289062 10.625 -25.210938 10.59375 -25.109375 C 10.570312 -25.003906 10.550781 -24.925781 10.53125 -24.875 C 10.445312 -24.613281 10.3125 -24.179688 10.125 -23.578125 C 9.945312 -22.984375 9.75 -22.300781 9.53125 -21.53125 C 9.3125 -20.769531 9.097656 -20.019531 8.890625 -19.28125 C 8.679688 -18.539062 8.507812 -17.894531 8.375 -17.34375 C 8.25 -16.800781 8.1875 -16.453125 8.1875 -16.296875 C 8.1875 -16.160156 8.210938 -16.09375 8.265625 -16.09375 C 8.316406 -16.09375 8.394531 -16.160156 8.5 -16.296875 Z M 8.5 -16.296875 "/></g></g></g><g fill="#d1d2d3" fill-opacity="1"><g transform="translate(178.338345, 323.8455)"><g><path d="M 16.453125 -11.46875 L 17.1875 -11.46875 C 17.425781 -11.46875 17.601562 -11.398438 17.71875 -11.265625 C 17.832031 -11.140625 17.90625 -10.972656 17.9375 -10.765625 C 18.007812 -10.316406 18.082031 -9.722656 18.15625 -8.984375 C 18.238281 -8.242188 18.28125 -7.613281 18.28125 -7.09375 C 18.28125 -6.914062 18.222656 -6.753906 18.109375 -6.609375 C 17.992188 -6.460938 17.832031 -6.390625 17.625 -6.390625 C 17.570312 -6.390625 17.398438 -6.390625 17.109375 -6.390625 C 16.828125 -6.390625 16.539062 -6.382812 16.25 -6.375 C 15.96875 -6.363281 15.785156 -6.359375 15.703125 -6.359375 C 15.472656 -6.359375 15.300781 -6.285156 15.1875 -6.140625 C 15.070312 -5.992188 14.988281 -5.816406 14.9375 -5.609375 C 14.832031 -4.773438 14.710938 -3.941406 14.578125 -3.109375 C 14.453125 -2.285156 14.335938 -1.457031 14.234375 -0.625 C 14.179688 -0.207031 13.957031 0 13.5625 0 C 13.351562 0 12.992188 -0.0625 12.484375 -0.1875 C 11.984375 -0.320312 11.472656 -0.46875 10.953125 -0.625 C 10.429688 -0.78125 10.039062 -0.910156 9.78125 -1.015625 C 9.550781 -1.085938 9.375 -1.222656 9.25 -1.421875 C 9.132812 -1.617188 9.078125 -1.804688 9.078125 -1.984375 C 9.109375 -2.296875 9.140625 -2.710938 9.171875 -3.234375 C 9.210938 -3.753906 9.253906 -4.234375 9.296875 -4.671875 C 9.335938 -5.117188 9.359375 -5.367188 9.359375 -5.421875 C 9.359375 -5.753906 9.1875 -5.921875 8.84375 -5.921875 C 8.613281 -5.921875 8.171875 -5.894531 7.515625 -5.84375 C 6.867188 -5.789062 6.164062 -5.734375 5.40625 -5.671875 C 4.65625 -5.609375 3.988281 -5.550781 3.40625 -5.5 C 2.820312 -5.445312 2.492188 -5.421875 2.421875 -5.421875 C 1.921875 -5.421875 1.59375 -5.601562 1.4375 -5.96875 C 1.3125 -6.226562 1.148438 -6.625 0.953125 -7.15625 C 0.753906 -7.6875 0.578125 -8.203125 0.421875 -8.703125 C 0.265625 -9.210938 0.1875 -9.5625 0.1875 -9.75 C 0.1875 -10.132812 0.289062 -10.457031 0.5 -10.71875 C 1.070312 -11.46875 1.742188 -12.375 2.515625 -13.4375 C 3.285156 -14.507812 4.097656 -15.648438 4.953125 -16.859375 C 5.804688 -18.066406 6.632812 -19.242188 7.4375 -20.390625 C 8.25 -21.535156 8.984375 -22.5625 9.640625 -23.46875 C 10.304688 -24.375 10.820312 -25.0625 11.1875 -25.53125 C 11.394531 -25.789062 11.640625 -25.921875 11.921875 -25.921875 C 12.109375 -25.921875 12.347656 -25.835938 12.640625 -25.671875 C 12.941406 -25.503906 13.160156 -25.421875 13.296875 -25.421875 C 13.453125 -25.421875 13.566406 -25.5 13.640625 -25.65625 C 13.796875 -25.9375 14.03125 -26.078125 14.34375 -26.078125 C 14.5 -26.078125 14.84375 -26.007812 15.375 -25.875 C 15.90625 -25.75 16.46875 -25.601562 17.0625 -25.4375 C 17.664062 -25.269531 18.140625 -25.117188 18.484375 -24.984375 C 18.765625 -24.878906 18.90625 -24.660156 18.90625 -24.328125 C 18.90625 -24.296875 18.898438 -24.238281 18.890625 -24.15625 C 18.878906 -24.082031 18.875 -24.046875 18.875 -24.046875 C 18.53125 -23.015625 18.101562 -21.460938 17.59375 -19.390625 C 17.09375 -17.328125 16.582031 -14.957031 16.0625 -12.28125 C 16.0625 -12.28125 16.050781 -12.234375 16.03125 -12.140625 C 16.019531 -12.046875 16.015625 -11.972656 16.015625 -11.921875 C 16.015625 -11.617188 16.160156 -11.46875 16.453125 -11.46875 Z M 6.546875 -11.34375 C 6.472656 -11.238281 6.4375 -11.148438 6.4375 -11.078125 C 6.4375 -10.921875 6.539062 -10.84375 6.75 -10.84375 C 6.769531 -10.84375 6.945312 -10.859375 7.28125 -10.890625 C 7.625 -10.929688 8.007812 -10.972656 8.4375 -11.015625 C 8.863281 -11.054688 9.234375 -11.085938 9.546875 -11.109375 C 9.941406 -11.160156 10.175781 -11.367188 10.25 -11.734375 C 10.351562 -12.328125 10.476562 -12.984375 10.625 -13.703125 C 10.769531 -14.421875 10.90625 -15.109375 11.03125 -15.765625 C 11.164062 -16.429688 11.269531 -16.984375 11.34375 -17.421875 C 11.425781 -17.867188 11.46875 -18.128906 11.46875 -18.203125 C 11.46875 -18.335938 11.453125 -18.40625 11.421875 -18.40625 C 11.398438 -18.40625 11.363281 -18.378906 11.3125 -18.328125 C 11.257812 -18.273438 11.234375 -18.25 11.234375 -18.25 C 11.128906 -18.113281 10.921875 -17.8125 10.609375 -17.34375 C 10.296875 -16.875 9.921875 -16.328125 9.484375 -15.703125 C 9.054688 -15.085938 8.632812 -14.46875 8.21875 -13.84375 C 7.8125 -13.21875 7.453125 -12.675781 7.140625 -12.21875 C 6.828125 -11.769531 6.628906 -11.476562 6.546875 -11.34375 Z M 6.546875 -11.34375 "/></g></g></g><g fill="#d1d2d3" fill-opacity="1"><g transform="translate(197.243987, 323.8455)"><g><path d="M 7.796875 -4.59375 C 8.390625 -4.59375 8.925781 -4.863281 9.40625 -5.40625 C 9.894531 -5.957031 10.3125 -6.648438 10.65625 -7.484375 C 11.007812 -8.316406 11.273438 -9.191406 11.453125 -10.109375 C 11.640625 -11.035156 11.734375 -11.863281 11.734375 -12.59375 C 11.734375 -13.476562 11.597656 -14.1875 11.328125 -14.71875 C 11.054688 -15.25 10.660156 -15.515625 10.140625 -15.515625 C 9.585938 -15.515625 9.078125 -15.238281 8.609375 -14.6875 C 8.140625 -14.144531 7.71875 -13.4375 7.34375 -12.5625 C 6.96875 -11.695312 6.675781 -10.796875 6.46875 -9.859375 C 6.257812 -8.921875 6.15625 -8.066406 6.15625 -7.296875 C 6.15625 -6.515625 6.285156 -5.867188 6.546875 -5.359375 C 6.804688 -4.847656 7.222656 -4.59375 7.796875 -4.59375 Z M 17.421875 -12.3125 L 17.421875 -12.125 C 17.421875 -11.425781 17.328125 -10.566406 17.140625 -9.546875 C 16.960938 -8.535156 16.671875 -7.476562 16.265625 -6.375 C 15.867188 -5.269531 15.34375 -4.234375 14.6875 -3.265625 C 14.039062 -2.304688 13.25 -1.519531 12.3125 -0.90625 C 11.382812 -0.300781 10.296875 0 9.046875 0 C 8.472656 0 7.753906 -0.109375 6.890625 -0.328125 C 6.035156 -0.546875 5.1875 -0.867188 4.34375 -1.296875 C 3.5 -1.734375 2.78125 -2.265625 2.1875 -2.890625 C 1.09375 -4.054688 0.546875 -5.769531 0.546875 -8.03125 C 0.546875 -8.914062 0.648438 -9.894531 0.859375 -10.96875 C 1.066406 -12.050781 1.382812 -13.117188 1.8125 -14.171875 C 2.238281 -15.222656 2.769531 -16.195312 3.40625 -17.09375 C 4.039062 -17.988281 4.785156 -18.703125 5.640625 -19.234375 C 6.503906 -19.765625 7.46875 -20.03125 8.53125 -20.03125 C 9.207031 -20.03125 10.015625 -19.878906 10.953125 -19.578125 C 11.890625 -19.285156 12.8125 -18.898438 13.71875 -18.421875 C 14.632812 -17.941406 15.363281 -17.414062 15.90625 -16.84375 C 16.425781 -16.320312 16.800781 -15.640625 17.03125 -14.796875 C 17.269531 -13.953125 17.398438 -13.125 17.421875 -12.3125 Z M 17.421875 -12.3125 "/></g></g></g><g fill="#d1d2d3" fill-opacity="1"><g transform="translate(215.058156, 323.8455)"><g><path d="M 8.578125 -16.953125 C 8.835938 -17.265625 9.191406 -17.640625 9.640625 -18.078125 C 10.097656 -18.523438 10.59375 -18.914062 11.125 -19.25 C 11.65625 -19.59375 12.15625 -19.765625 12.625 -19.765625 C 12.988281 -19.765625 13.222656 -19.554688 13.328125 -19.140625 C 13.359375 -18.929688 13.375 -18.691406 13.375 -18.421875 C 13.375 -18.148438 13.375 -17.84375 13.375 -17.5 C 13.375 -16.976562 13.363281 -16.425781 13.34375 -15.84375 C 13.332031 -15.257812 13.316406 -14.707031 13.296875 -14.1875 C 13.296875 -13.71875 13.046875 -13.445312 12.546875 -13.375 C 11.953125 -13.269531 11.238281 -13.113281 10.40625 -12.90625 C 9.570312 -12.695312 8.816406 -12.472656 8.140625 -12.234375 C 7.910156 -12.160156 7.726562 -12.023438 7.59375 -11.828125 C 7.46875 -11.640625 7.378906 -11.441406 7.328125 -11.234375 C 7.097656 -10.109375 6.84375 -8.867188 6.5625 -7.515625 C 6.289062 -6.171875 6.046875 -4.882812 5.828125 -3.65625 C 5.609375 -2.4375 5.429688 -1.453125 5.296875 -0.703125 C 5.191406 -0.285156 4.945312 -0.078125 4.5625 -0.078125 C 4.320312 -0.078125 3.929688 -0.140625 3.390625 -0.265625 C 2.847656 -0.398438 2.300781 -0.554688 1.75 -0.734375 C 1.207031 -0.921875 0.804688 -1.078125 0.546875 -1.203125 C 0.390625 -1.285156 0.269531 -1.410156 0.1875 -1.578125 C 0.113281 -1.742188 0.078125 -1.921875 0.078125 -2.109375 C 0.078125 -2.179688 0.0820312 -2.265625 0.09375 -2.359375 C 0.101562 -2.453125 0.109375 -2.5 0.109375 -2.5 L 2.890625 -19.34375 C 2.941406 -19.539062 3.050781 -19.695312 3.21875 -19.8125 C 3.382812 -19.9375 3.5625 -20 3.75 -20 C 3.945312 -20 4.316406 -19.945312 4.859375 -19.84375 C 5.410156 -19.738281 5.953125 -19.617188 6.484375 -19.484375 C 7.023438 -19.359375 7.375 -19.257812 7.53125 -19.1875 C 7.914062 -19 8.109375 -18.695312 8.109375 -18.28125 L 8.140625 -17.109375 C 8.140625 -16.878906 8.191406 -16.765625 8.296875 -16.765625 C 8.347656 -16.765625 8.441406 -16.828125 8.578125 -16.953125 Z M 8.578125 -16.953125 "/></g></g></g><g fill="#d1d2d3" fill-opacity="1"><g transform="translate(118.243033, 346.865279)"><g><path d="M 3.625 -9.28125 L 3.625 -6.375 L 8.640625 -6.375 L 8.640625 -4.640625 L 3.625 -4.640625 L 3.625 0 L 1.421875 0 L 1.421875 -11 L 9.203125 -11 L 9.203125 -9.28125 Z M 3.625 -9.28125 "/></g></g></g><g fill="#d1d2d3" fill-opacity="1"><g transform="translate(127.693976, 346.865279)"><g><path d="M 8.828125 -8.484375 L 8.828125 0 L 6.625 0 L 6.625 -1.4375 L 5.984375 -0.34375 C 5.398438 0.03125 4.71875 0.21875 3.9375 0.21875 C 3.09375 0.21875 2.40625 0.015625 1.875 -0.390625 C 1.351562 -0.796875 1.039062 -1.304688 0.9375 -1.921875 C 0.882812 -2.285156 0.859375 -2.800781 0.859375 -3.46875 L 0.859375 -8.484375 L 3.0625 -8.484375 L 3.0625 -3.9375 C 3.0625 -3.539062 3.082031 -3.148438 3.125 -2.765625 C 3.238281 -1.816406 3.785156 -1.34375 4.765625 -1.34375 C 5.335938 -1.34375 5.789062 -1.578125 6.125 -2.046875 C 6.457031 -2.523438 6.625 -3.226562 6.625 -4.15625 L 6.625 -8.484375 Z M 8.828125 -8.484375 "/></g></g></g><g fill="#d1d2d3" fill-opacity="1"><g transform="translate(137.543355, 346.865279)"><g><path d="M 3.140625 -11.71875 L 3.140625 -2.765625 C 3.140625 -2.398438 3.144531 -2.144531 3.15625 -2 C 3.175781 -1.769531 3.253906 -1.617188 3.390625 -1.546875 C 3.535156 -1.472656 3.785156 -1.445312 4.140625 -1.46875 L 4.140625 0.046875 C 3.753906 0.0859375 3.304688 0.109375 2.796875 0.109375 C 1.617188 0.109375 1.007812 -0.390625 0.96875 -1.390625 C 0.945312 -1.640625 0.9375 -2.082031 0.9375 -2.71875 L 0.9375 -11.71875 Z M 3.140625 -11.71875 "/></g></g></g><g fill="#d1d2d3" fill-opacity="1"><g transform="translate(141.989923, 346.865279)"><g><path d="M 3.140625 -11.71875 L 3.140625 -2.765625 C 3.140625 -2.398438 3.144531 -2.144531 3.15625 -2 C 3.175781 -1.769531 3.253906 -1.617188 3.390625 -1.546875 C 3.535156 -1.472656 3.785156 -1.445312 4.140625 -1.46875 L 4.140625 0.046875 C 3.753906 0.0859375 3.304688 0.109375 2.796875 0.109375 C 1.617188 0.109375 1.007812 -0.390625 0.96875 -1.390625 C 0.945312 -1.640625 0.9375 -2.082031 0.9375 -2.71875 L 0.9375 -11.71875 Z M 3.140625 -11.71875 "/></g></g></g><g fill="#d1d2d3" fill-opacity="1"><g transform="translate(146.43649, 346.865279)"><g><path d="M 5.0625 -11.21875 C 6.320312 -11.21875 7.28125 -10.90625 7.9375 -10.28125 C 8.601562 -9.65625 9 -8.816406 9.125 -7.765625 L 6.890625 -7.765625 C 6.828125 -8.335938 6.632812 -8.78125 6.3125 -9.09375 C 5.988281 -9.414062 5.546875 -9.578125 4.984375 -9.578125 C 4.523438 -9.578125 4.148438 -9.460938 3.859375 -9.234375 C 3.578125 -9.015625 3.4375 -8.691406 3.4375 -8.265625 C 3.4375 -7.804688 3.609375 -7.441406 3.953125 -7.171875 C 4.304688 -6.910156 4.914062 -6.675781 5.78125 -6.46875 C 6.988281 -6.195312 7.875 -5.773438 8.4375 -5.203125 C 9.007812 -4.640625 9.296875 -3.914062 9.296875 -3.03125 C 9.296875 -2.03125 8.898438 -1.238281 8.109375 -0.65625 C 7.328125 -0.0703125 6.367188 0.21875 5.234375 0.21875 C 3.890625 0.21875 2.816406 -0.0703125 2.015625 -0.65625 C 1.222656 -1.25 0.773438 -2.113281 0.671875 -3.25 L 2.921875 -3.25 C 3.035156 -2.664062 3.296875 -2.210938 3.703125 -1.890625 C 4.117188 -1.578125 4.617188 -1.421875 5.203125 -1.421875 C 5.703125 -1.421875 6.125 -1.546875 6.46875 -1.796875 C 6.820312 -2.054688 7 -2.394531 7 -2.8125 C 7 -3.269531 6.832031 -3.640625 6.5 -3.921875 C 6.164062 -4.210938 5.597656 -4.457031 4.796875 -4.65625 C 3.566406 -4.945312 2.644531 -5.335938 2.03125 -5.828125 C 1.425781 -6.328125 1.125 -7.050781 1.125 -8 C 1.125 -8.976562 1.503906 -9.757812 2.265625 -10.34375 C 3.035156 -10.925781 3.96875 -11.21875 5.0625 -11.21875 Z M 5.0625 -11.21875 "/></g></g></g><g fill="#d1d2d3" fill-opacity="1"><g transform="translate(156.126499, 346.865279)"><g><path d="M 3.640625 -6.96875 L 3.640625 -3.046875 C 3.640625 -2.691406 3.644531 -2.441406 3.65625 -2.296875 C 3.6875 -1.878906 3.804688 -1.609375 4.015625 -1.484375 C 4.222656 -1.367188 4.632812 -1.332031 5.25 -1.375 L 5.25 0.0625 C 4.789062 0.132812 4.304688 0.171875 3.796875 0.171875 C 2.984375 0.171875 2.40625 0.0351562 2.0625 -0.234375 C 1.71875 -0.503906 1.519531 -0.945312 1.46875 -1.5625 C 1.445312 -1.8125 1.4375 -2.222656 1.4375 -2.796875 L 1.4375 -6.96875 L 0.1875 -6.96875 L 0.1875 -8.421875 L 1.4375 -8.421875 L 1.4375 -10.5 L 3.640625 -10.5 L 3.640625 -8.421875 L 5.390625 -8.421875 L 5.390625 -6.96875 Z M 3.640625 -6.96875 "/></g></g></g><g fill="#d1d2d3" fill-opacity="1"><g transform="translate(161.879936, 346.865279)"><g><path d="M 5.921875 0 L 5.765625 -1.25 L 5.359375 -0.328125 C 4.804688 0.0351562 4.101562 0.21875 3.25 0.21875 C 2.476562 0.21875 1.832031 0.00390625 1.3125 -0.421875 C 0.789062 -0.859375 0.53125 -1.46875 0.53125 -2.25 C 0.53125 -3.1875 0.925781 -3.90625 1.71875 -4.40625 C 2.507812 -4.90625 3.671875 -5.15625 5.203125 -5.15625 L 5.734375 -5.15625 L 5.734375 -5.34375 C 5.734375 -5.675781 5.722656 -5.941406 5.703125 -6.140625 C 5.628906 -6.816406 5.195312 -7.15625 4.40625 -7.15625 C 3.519531 -7.15625 3.046875 -6.675781 2.984375 -5.71875 L 0.84375 -5.703125 C 0.875 -6.640625 1.226562 -7.375 1.90625 -7.90625 C 2.582031 -8.4375 3.441406 -8.703125 4.484375 -8.703125 C 6.597656 -8.703125 7.726562 -7.867188 7.875 -6.203125 C 7.90625 -5.796875 7.921875 -5.359375 7.921875 -4.890625 L 7.921875 -2.15625 C 7.921875 -1.5 7.972656 -0.78125 8.078125 0 Z M 4.09375 -1.328125 C 4.5625 -1.328125 4.953125 -1.484375 5.265625 -1.796875 C 5.578125 -2.117188 5.734375 -2.5625 5.734375 -3.125 L 5.734375 -3.8125 C 3.785156 -3.945312 2.8125 -3.484375 2.8125 -2.421875 C 2.8125 -1.691406 3.238281 -1.328125 4.09375 -1.328125 Z M 4.09375 -1.328125 "/></g></g></g><g fill="#d1d2d3" fill-opacity="1"><g transform="translate(170.836814, 346.865279)"><g><path d="M 4.671875 -8.703125 C 5.785156 -8.703125 6.6875 -8.394531 7.375 -7.78125 C 8.070312 -7.175781 8.460938 -6.390625 8.546875 -5.421875 L 6.375 -5.421875 C 6.1875 -6.578125 5.601562 -7.15625 4.625 -7.15625 C 4.039062 -7.15625 3.570312 -6.914062 3.21875 -6.4375 C 2.875 -5.957031 2.703125 -5.25 2.703125 -4.3125 C 2.703125 -3.3125 2.875 -2.5625 3.21875 -2.0625 C 3.5625 -1.570312 4.023438 -1.328125 4.609375 -1.328125 C 5.046875 -1.328125 5.414062 -1.460938 5.71875 -1.734375 C 6.019531 -2.015625 6.222656 -2.414062 6.328125 -2.9375 L 8.53125 -2.9375 C 8.34375 -1.914062 7.890625 -1.132812 7.171875 -0.59375 C 6.460938 -0.0507812 5.566406 0.21875 4.484375 0.21875 C 3.273438 0.21875 2.296875 -0.160156 1.546875 -0.921875 C 0.804688 -1.679688 0.4375 -2.765625 0.4375 -4.171875 C 0.4375 -5.578125 0.835938 -6.679688 1.640625 -7.484375 C 2.453125 -8.296875 3.460938 -8.703125 4.671875 -8.703125 Z M 4.671875 -8.703125 "/></g></g></g><g fill="#d1d2d3" fill-opacity="1"><g transform="translate(179.777751, 346.865279)"><g><path d="M 3.90625 -3.34375 L 3.203125 -2.578125 L 3.203125 0 L 1 0 L 1 -11.71875 L 3.203125 -11.71875 L 3.203125 -4.609375 L 6.609375 -8.484375 L 9.265625 -8.484375 L 5.5 -4.546875 L 9.3125 0 L 6.53125 0 Z M 3.90625 -3.34375 "/></g></g></g><g fill="#d1d2d3" fill-opacity="1"><g transform="translate(189.452143, 346.314769)"><g><path d="M 6.34375 -10.9375 C 7.195312 -10.832031 7.953125 -10.570312 8.609375 -10.15625 C 9.265625 -9.738281 9.773438 -9.15625 10.140625 -8.40625 C 10.515625 -7.65625 10.703125 -6.726562 10.703125 -5.625 C 10.703125 -4.539062 10.507812 -3.601562 10.125 -2.8125 C 9.75 -2.019531 9.222656 -1.390625 8.546875 -0.921875 C 7.878906 -0.453125 7.117188 -0.164062 6.265625 -0.0625 C 5.992188 -0.03125 5.765625 -0.0078125 5.578125 0 C 5.398438 0 5.160156 0 4.859375 0 L 1.59375 0 L 1.59375 -11 L 4.953125 -11 C 5.242188 -11 5.476562 -10.992188 5.65625 -10.984375 C 5.84375 -10.984375 6.070312 -10.96875 6.34375 -10.9375 Z M 6.125 -1.203125 C 7.0625 -1.347656 7.804688 -1.796875 8.359375 -2.546875 C 8.921875 -3.304688 9.203125 -4.332031 9.203125 -5.625 C 9.203125 -6.851562 8.9375 -7.820312 8.40625 -8.53125 C 7.875 -9.238281 7.140625 -9.664062 6.203125 -9.8125 C 6.035156 -9.84375 5.84375 -9.863281 5.625 -9.875 C 5.40625 -9.882812 5.148438 -9.890625 4.859375 -9.890625 L 2.96875 -9.890625 L 2.96875 -1.109375 L 4.78125 -1.109375 C 5.070312 -1.109375 5.328125 -1.113281 5.546875 -1.125 C 5.765625 -1.144531 5.957031 -1.171875 6.125 -1.203125 Z M 6.125 -1.203125 "/></g></g></g><g fill="#d1d2d3" fill-opacity="1"><g transform="translate(200.760406, 346.314769)"><g><path d="M 8.125 -4.46875 C 8.125 -4.40625 8.125 -4.316406 8.125 -4.203125 C 8.125 -4.085938 8.113281 -3.957031 8.09375 -3.8125 L 1.96875 -3.8125 C 2.007812 -3.070312 2.144531 -2.484375 2.375 -2.046875 C 2.601562 -1.609375 2.890625 -1.296875 3.234375 -1.109375 C 3.585938 -0.921875 3.972656 -0.828125 4.390625 -0.828125 C 4.941406 -0.828125 5.414062 -0.988281 5.8125 -1.3125 C 6.21875 -1.644531 6.472656 -2.117188 6.578125 -2.734375 L 8.015625 -2.734375 C 7.898438 -2.046875 7.660156 -1.484375 7.296875 -1.046875 C 6.929688 -0.617188 6.488281 -0.300781 5.96875 -0.09375 C 5.457031 0.113281 4.910156 0.21875 4.328125 0.21875 C 3.585938 0.21875 2.925781 0.0546875 2.34375 -0.265625 C 1.769531 -0.585938 1.316406 -1.078125 0.984375 -1.734375 C 0.648438 -2.390625 0.484375 -3.210938 0.484375 -4.203125 C 0.484375 -5.109375 0.65625 -5.894531 1 -6.5625 C 1.351562 -7.238281 1.832031 -7.757812 2.4375 -8.125 C 3.039062 -8.488281 3.726562 -8.671875 4.5 -8.671875 C 5.269531 -8.671875 5.925781 -8.492188 6.46875 -8.140625 C 7.007812 -7.785156 7.421875 -7.289062 7.703125 -6.65625 C 7.984375 -6.03125 8.125 -5.300781 8.125 -4.46875 Z M 4.46875 -7.625 C 3.800781 -7.625 3.238281 -7.390625 2.78125 -6.921875 C 2.332031 -6.453125 2.066406 -5.765625 1.984375 -4.859375 L 6.734375 -4.859375 C 6.671875 -5.742188 6.445312 -6.425781 6.0625 -6.90625 C 5.6875 -7.382812 5.15625 -7.625 4.46875 -7.625 Z M 4.46875 -7.625 "/></g></g></g><g fill="#d1d2d3" fill-opacity="1"><g transform="translate(209.516733, 346.314769)"><g><path d="M 8.109375 -8.453125 L 4.890625 0 L 3.21875 0 L 0.015625 -8.453125 L 1.53125 -8.453125 L 4.109375 -1 L 6.65625 -8.453125 Z M 8.109375 -8.453125 "/></g></g></g><g fill="#d1d2d3" fill-opacity="1"><g transform="translate(217.71483, 346.314769)"><g><path d="M 8.125 -4.46875 C 8.125 -4.40625 8.125 -4.316406 8.125 -4.203125 C 8.125 -4.085938 8.113281 -3.957031 8.09375 -3.8125 L 1.96875 -3.8125 C 2.007812 -3.070312 2.144531 -2.484375 2.375 -2.046875 C 2.601562 -1.609375 2.890625 -1.296875 3.234375 -1.109375 C 3.585938 -0.921875 3.972656 -0.828125 4.390625 -0.828125 C 4.941406 -0.828125 5.414062 -0.988281 5.8125 -1.3125 C 6.21875 -1.644531 6.472656 -2.117188 6.578125 -2.734375 L 8.015625 -2.734375 C 7.898438 -2.046875 7.660156 -1.484375 7.296875 -1.046875 C 6.929688 -0.617188 6.488281 -0.300781 5.96875 -0.09375 C 5.457031 0.113281 4.910156 0.21875 4.328125 0.21875 C 3.585938 0.21875 2.925781 0.0546875 2.34375 -0.265625 C 1.769531 -0.585938 1.316406 -1.078125 0.984375 -1.734375 C 0.648438 -2.390625 0.484375 -3.210938 0.484375 -4.203125 C 0.484375 -5.109375 0.65625 -5.894531 1 -6.5625 C 1.351562 -7.238281 1.832031 -7.757812 2.4375 -8.125 C 3.039062 -8.488281 3.726562 -8.671875 4.5 -8.671875 C 5.269531 -8.671875 5.925781 -8.492188 6.46875 -8.140625 C 7.007812 -7.785156 7.421875 -7.289062 7.703125 -6.65625 C 7.984375 -6.03125 8.125 -5.300781 8.125 -4.46875 Z M 4.46875 -7.625 C 3.800781 -7.625 3.238281 -7.390625 2.78125 -6.921875 C 2.332031 -6.453125 2.066406 -5.765625 1.984375 -4.859375 L 6.734375 -4.859375 C 6.671875 -5.742188 6.445312 -6.425781 6.0625 -6.90625 C 5.6875 -7.382812 5.15625 -7.625 4.46875 -7.625 Z M 4.46875 -7.625 "/></g></g></g><g fill="#d1d2d3" fill-opacity="1"><g transform="translate(226.471156, 346.314769)"><g><path d="M 2.484375 -11.71875 L 2.484375 -2.421875 C 2.484375 -2.296875 2.484375 -2.164062 2.484375 -2.03125 C 2.484375 -1.894531 2.488281 -1.757812 2.5 -1.625 C 2.519531 -1.363281 2.601562 -1.179688 2.75 -1.078125 C 2.90625 -0.972656 3.171875 -0.941406 3.546875 -0.984375 L 3.546875 0 C 3.390625 0.0195312 3.226562 0.0351562 3.0625 0.046875 C 2.894531 0.0546875 2.726562 0.0625 2.5625 0.0625 C 2.175781 0.0625 1.847656 -0.0234375 1.578125 -0.203125 C 1.304688 -0.378906 1.15625 -0.734375 1.125 -1.265625 C 1.113281 -1.410156 1.109375 -1.570312 1.109375 -1.75 C 1.109375 -1.9375 1.109375 -2.144531 1.109375 -2.375 L 1.109375 -11.71875 Z M 2.484375 -11.71875 "/></g></g></g><g fill="#d1d2d3" fill-opacity="1"><g transform="translate(230.410707, 346.314769)"><g><path d="M 4.671875 -8.671875 C 5.628906 -8.671875 6.414062 -8.46875 7.03125 -8.0625 C 7.65625 -7.65625 8.117188 -7.113281 8.421875 -6.4375 C 8.722656 -5.757812 8.875 -5.023438 8.875 -4.234375 C 8.875 -3.441406 8.722656 -2.703125 8.421875 -2.015625 C 8.117188 -1.335938 7.65625 -0.796875 7.03125 -0.390625 C 6.414062 0.015625 5.628906 0.21875 4.671875 0.21875 C 3.710938 0.21875 2.925781 0.015625 2.3125 -0.390625 C 1.695312 -0.796875 1.238281 -1.335938 0.9375 -2.015625 C 0.632812 -2.703125 0.484375 -3.441406 0.484375 -4.234375 C 0.484375 -5.023438 0.632812 -5.757812 0.9375 -6.4375 C 1.238281 -7.113281 1.695312 -7.65625 2.3125 -8.0625 C 2.925781 -8.46875 3.710938 -8.671875 4.671875 -8.671875 Z M 4.671875 -0.828125 C 5.242188 -0.828125 5.726562 -0.972656 6.125 -1.265625 C 6.53125 -1.554688 6.835938 -1.957031 7.046875 -2.46875 C 7.265625 -2.976562 7.375 -3.566406 7.375 -4.234375 C 7.375 -5.234375 7.132812 -6.046875 6.65625 -6.671875 C 6.1875 -7.304688 5.523438 -7.625 4.671875 -7.625 C 3.816406 -7.625 3.15625 -7.304688 2.6875 -6.671875 C 2.21875 -6.046875 1.984375 -5.234375 1.984375 -4.234375 C 1.984375 -3.566406 2.085938 -2.976562 2.296875 -2.46875 C 2.503906 -1.957031 2.804688 -1.554688 3.203125 -1.265625 C 3.609375 -0.972656 4.097656 -0.828125 4.671875 -0.828125 Z M 4.671875 -0.828125 "/></g></g></g><g fill="#d1d2d3" fill-opacity="1"><g transform="translate(239.757165, 346.314769)"><g><path d="M 5.421875 -8.671875 C 6.253906 -8.671875 6.953125 -8.484375 7.515625 -8.109375 C 8.085938 -7.734375 8.519531 -7.21875 8.8125 -6.5625 C 9.113281 -5.914062 9.265625 -5.179688 9.265625 -4.359375 C 9.265625 -3.316406 9.070312 -2.457031 8.6875 -1.78125 C 8.3125 -1.101562 7.804688 -0.597656 7.171875 -0.265625 C 6.546875 0.0546875 5.867188 0.21875 5.140625 0.21875 C 4.785156 0.21875 4.410156 0.164062 4.015625 0.0625 C 3.628906 -0.03125 3.328125 -0.160156 3.109375 -0.328125 L 2.546875 -1.171875 L 2.546875 3.125 L 1.1875 3.125 L 1.1875 -8.453125 L 2.546875 -8.453125 L 2.546875 -7.09375 L 3.1875 -8.015625 C 3.4375 -8.210938 3.765625 -8.367188 4.171875 -8.484375 C 4.578125 -8.609375 4.992188 -8.671875 5.421875 -8.671875 Z M 5.140625 -0.828125 C 5.878906 -0.828125 6.5 -1.109375 7 -1.671875 C 7.507812 -2.242188 7.765625 -3.085938 7.765625 -4.203125 C 7.765625 -4.835938 7.664062 -5.414062 7.46875 -5.9375 C 7.28125 -6.457031 7 -6.867188 6.625 -7.171875 C 6.25 -7.472656 5.78125 -7.625 5.21875 -7.625 C 4.75 -7.625 4.3125 -7.515625 3.90625 -7.296875 C 3.5 -7.078125 3.171875 -6.722656 2.921875 -6.234375 C 2.671875 -5.753906 2.546875 -5.113281 2.546875 -4.3125 L 2.546875 -3.84375 C 2.546875 -3.125 2.675781 -2.539062 2.9375 -2.09375 C 3.195312 -1.644531 3.523438 -1.320312 3.921875 -1.125 C 4.328125 -0.925781 4.734375 -0.828125 5.140625 -0.828125 Z M 5.140625 -0.828125 "/></g></g></g><g fill="#d1d2d3" fill-opacity="1"><g transform="translate(249.502364, 346.314769)"><g><path d="M 8.125 -4.46875 C 8.125 -4.40625 8.125 -4.316406 8.125 -4.203125 C 8.125 -4.085938 8.113281 -3.957031 8.09375 -3.8125 L 1.96875 -3.8125 C 2.007812 -3.070312 2.144531 -2.484375 2.375 -2.046875 C 2.601562 -1.609375 2.890625 -1.296875 3.234375 -1.109375 C 3.585938 -0.921875 3.972656 -0.828125 4.390625 -0.828125 C 4.941406 -0.828125 5.414062 -0.988281 5.8125 -1.3125 C 6.21875 -1.644531 6.472656 -2.117188 6.578125 -2.734375 L 8.015625 -2.734375 C 7.898438 -2.046875 7.660156 -1.484375 7.296875 -1.046875 C 6.929688 -0.617188 6.488281 -0.300781 5.96875 -0.09375 C 5.457031 0.113281 4.910156 0.21875 4.328125 0.21875 C 3.585938 0.21875 2.925781 0.0546875 2.34375 -0.265625 C 1.769531 -0.585938 1.316406 -1.078125 0.984375 -1.734375 C 0.648438 -2.390625 0.484375 -3.210938 0.484375 -4.203125 C 0.484375 -5.109375 0.65625 -5.894531 1 -6.5625 C 1.351562 -7.238281 1.832031 -7.757812 2.4375 -8.125 C 3.039062 -8.488281 3.726562 -8.671875 4.5 -8.671875 C 5.269531 -8.671875 5.925781 -8.492188 6.46875 -8.140625 C 7.007812 -7.785156 7.421875 -7.289062 7.703125 -6.65625 C 7.984375 -6.03125 8.125 -5.300781 8.125 -4.46875 Z M 4.46875 -7.625 C 3.800781 -7.625 3.238281 -7.390625 2.78125 -6.921875 C 2.332031 -6.453125 2.066406 -5.765625 1.984375 -4.859375 L 6.734375 -4.859375 C 6.671875 -5.742188 6.445312 -6.425781 6.0625 -6.90625 C 5.6875 -7.382812 5.15625 -7.625 4.46875 -7.625 Z M 4.46875 -7.625 "/></g></g></g><g fill="#d1d2d3" fill-opacity="1"><g transform="translate(258.258691, 346.314769)"><g><path d="M 4.5 -8.640625 C 4.726562 -8.640625 4.921875 -8.601562 5.078125 -8.53125 L 5.078125 -7.5 C 4.359375 -7.550781 3.753906 -7.359375 3.265625 -6.921875 C 2.785156 -6.484375 2.546875 -5.78125 2.546875 -4.8125 L 2.546875 0 L 1.1875 0 L 1.1875 -8.453125 L 2.546875 -8.453125 L 2.546875 -7.125 L 3.3125 -8.265625 C 3.6875 -8.515625 4.082031 -8.640625 4.5 -8.640625 Z M 4.5 -8.640625 "/></g></g></g></svg>